Coordinates
version=1
nRows=24
nColumns=22
inDegrees=yes

Units are S.I. units (second, meters, Newtons, ...)
If the header above contains a line with 'inDegrees', this indicates whether rotational values are in degrees (yes) or radians (no).

endheader
time	pelvis_tilt	pelvis_list	pelvis_rotation	pelvis_tx	pelvis_ty	pelvis_tz	hip_flexion_r	hip_adduction_r	hip_rotation_r	knee_angle_r	ankle_angle_r	subtalar_angle_r	hip_flexion_l	hip_adduction_l	hip_rotation_l	knee_angle_l	ankle_angle_l	subtalar_angle_l	lumbar_extension	lumbar_bending	lumbar_rotation
      1.66000000	      2.93348346	      2.58718497	    125.07806582	     -0.59199278	      0.91057017	      0.60400749	     -8.77147799	     10.12923093	     16.52071825	    -17.28184976	     19.57397176	    -11.35166632	     26.85787452	     -7.74702256	     19.94182402	    -18.33941793	      7.51173158	      8.27554797	     -9.52158244	      1.19958208	      2.40134697
      1.67000000	      2.93570206	      2.32372059	    124.65023823	     -0.59866042	      0.90895875	      0.59750126	     -9.04153144	      9.80437270	     16.50292422	    -17.62934773	     19.83531654	    -11.41743214	     26.98804157	     -7.33126430	     20.34118861	    -19.34020873	      6.99538277	      8.92826571	     -9.15336941	      0.96916056	      2.33355146
      1.68000000	      2.90325415	      1.98601800	    124.27748916	     -0.60543174	      0.90752083	      0.59097535	     -9.21709680	      9.41897051	     16.40975318	    -18.05268148	     19.99077470	    -11.50782536	     27.15181388	     -6.79699094	     20.77369238	    -20.40859131	      6.43086531	      9.61914762	     -8.72245810	      0.66383246	      2.19552813
      1.69000000	      2.82006458	      1.59720305	    123.95677841	     -0.61227483	      0.90635942	      0.58440134	     -9.32073595	      8.97809888	     16.27402476	    -18.56250603	     19.98879535	    -11.62012891	     27.33143538	     -6.16844639	     21.12699349	    -21.53029207	      5.91862671	     10.23336183	     -8.26463652	      0.28029242	      1.98152782
      1.70000000	      2.67042393	      1.17130489	    123.68278633	     -0.61916140	      0.90555144	      0.57771900	     -9.37287239	      8.47723978	     16.08569465	    -19.15864701	     19.80813379	    -11.73921810	     27.49844078	     -5.47239636	     21.31079257	    -22.66317180	      5.50988838	     10.69478036	     -7.79682973	     -0.19860000	      1.72412225
      1.71000000	      2.45684442	      0.73994663	    123.43482065	     -0.62600427	      0.90515243	      0.57091855	     -9.36688424	      7.94579200	     15.85986743	    -19.90010357	     19.39563576	    -11.84426142	     27.61252075	     -4.76799981	     21.26103753	    -23.75263579	      5.24071130	     11.02558798	     -7.35858132	     -0.75459058	      1.42166705
      1.72000000	      2.18604186	      0.31452541	    123.20193020	     -0.63279590	      0.90517748	      0.56397018	     -9.31254125	      7.38978680	     15.58785389	    -20.77261581	     18.74868138	    -11.90406603	     27.63597076	     -4.08708092	     20.99072999	    -24.73450752	      5.11892808	     11.24877411	     -6.94878695	     -1.37383685	      1.11157026
      1.73000000	      1.86102217	     -0.09777856	    122.96982740	     -0.63948952	      0.90561969	      0.55691105	     -9.19119217	      6.81727600	     15.25462115	    -21.81049091	     17.86769510	    -11.88889534	     27.52978673	     -3.44707076	     20.54163222	    -25.53824324	      5.12265626	     11.38546274	     -6.58325714	     -2.04671687	      0.79335822
      1.74000000	      1.48760292	     -0.49730828	    122.71945137	     -0.64605399	      0.90645117	      0.54976824	     -8.97303862	      6.22575960	     14.82091435	    -23.04802052	     16.75301690	    -11.75563009	     27.26494557	     -2.85264862	     19.96701006	    -26.11012414	      5.21488534	     11.44521347	     -6.26104018	     -2.76209027	      0.48022194
      1.75000000	      1.07631452	     -0.87449552	    122.43616103	     -0.65246623	      0.90763918	      0.54259909	     -8.63943630	      5.61841671	     14.25291744	    -24.50388590	     15.39438030	    -11.43158151	     26.82718850	     -2.30674150	     19.31737825	    -26.43074563	      5.37264249	     11.41084956	     -5.99302215	     -3.49518594	      0.18317898
      1.76000000	      0.65259590	     -1.20147725	    122.11427187	     -0.65869755	      0.90913054	      0.53546470	     -8.17752654	      5.02095817	     13.51134105	    -26.19717447	     13.78823959	    -10.83536514	     26.22298824	     -1.82608897	     18.63606608	    -26.53100020	      5.61098831	     11.25233836	     -5.80257578	     -4.19721631	     -0.07640938
      1.77000000	      0.24084967	     -1.50634381	    121.74052381	     -0.66471287	      0.91084014	      0.52833960	     -7.55486994	      4.42932740	     12.63167658	    -28.10395256	     11.93719902	    -10.07497138	     25.47748329	     -1.41325978	     17.95459236	    -26.38518799	      5.88307912	     10.99951028	     -5.64088330	     -4.86259357	     -0.32678837
      1.78000000	     -0.14279149	     -1.77803493	    121.30922469	     -0.67048972	      0.91269841	      0.52131263	     -6.74296383	      3.84442291	     11.59443845	    -30.25704308	      9.89861363	     -9.13671853	     24.62474343	     -1.06669386	     17.30197074	    -26.04907709	      6.12973485	     10.64836383	     -5.52430797	     -5.46153055	     -0.53397044
      1.79000000	     -0.48598251	     -2.01418817	    120.82662802	     -0.67603077	      0.91462909	      0.51439569	     -5.74387806	      3.26337309	     10.41738433	    -32.63537533	      7.74755052	     -8.03294666	     23.70197188	     -0.78451683	     16.67719823	    -25.57770537	      6.35491229	     10.19738860	     -5.44909368	     -5.97936993	     -0.72016278
      1.80000000	     -0.77933839	     -2.21490351	    120.29057798	     -0.68134251	      0.91657183	      0.50760404	     -4.56316007	      2.68011437	      9.14818952	    -35.21637015	      5.53326688	     -6.83197917	     22.73937276	     -0.56721050	     16.08141787	    -25.01360172	      6.55816962	      9.65016011	     -5.41316109	     -6.40075051	     -0.88943360
      1.81000000	     -1.02257313	     -2.37930863	    119.70394539	     -0.68640878	      0.91846669	      0.50095354	     -3.21252687	      2.09030768	      7.83015733	    -37.97543695	      3.34420074	     -5.63869858	     21.76800664	     -0.40781056	     15.51080279	    -24.41376255	      6.73617327	      9.03673247	     -5.42266119	     -6.72921340	     -1.04982803
      1.82000000	     -1.22880120	     -2.51514330	    119.07513758	     -0.69126082	      0.92025731	      0.49447057	     -1.70987903	      1.47354045	      6.50193816	    -40.87971740	      1.24839843	     -4.54438872	     20.81389451	     -0.28582850	     14.93927542	    -23.81970804	      6.91684504	      8.41128547	     -5.47982367	     -6.97415918	     -1.22109591
      1.83000000	     -1.40878834	     -2.62799147	    118.39396721	     -0.69586442	      0.92189866	      0.48815596	     -0.06966684	      0.82054941	      5.21279001	    -43.89395687	     -0.69096495	     -3.54666726	     19.89349747	     -0.19181156	     14.35391563	    -23.26578648	      7.09385585	      7.80512357	     -5.58825637	     -7.15731329	     -1.39376480
      1.84000000	     -1.58966569	     -2.73255710	    117.65941347	     -0.70024066	      0.92335689	      0.48202297	      1.69028919	      0.09877694	      3.97955131	    -46.97628054	     -2.39078909	     -2.63247976	     19.01857791	     -0.09568802	     13.71434079	    -22.77113470	      7.25795220	      7.28315573	     -5.74734298	     -7.31455822	     -1.55753102
      1.85000000	     -1.78197886	     -2.82851021	    116.86631912	     -0.70434764	      0.92461453	      0.47606300	      3.54520907	     -0.66627401	      2.88469752	    -50.07292128	     -3.82693844	     -1.68171374	     18.18602348	      0.00840651	     13.02476053	    -22.34298038	      7.47297044	      6.81835669	     -5.96223584	     -7.46394781	     -1.75547786
      1.86000000	     -1.99738210	     -2.91714113	    116.02927809	     -0.70826704	      0.92568050	      0.47024832	      5.46021274	     -1.48093320	      1.90299762	    -53.11263864	     -4.94250484	     -0.66866917	     17.38260170	      0.13774356	     12.28699571	    -21.96830132	      7.72051607	      6.42127699	     -6.22359851	     -7.61277811	     -1.95402329
      1.87000000	     -2.27033511	     -3.00637793	    115.15753607	     -0.71201322	      0.92656713	      0.46454842	      7.40489628	     -2.36798715	      1.02261783	    -56.04420917	     -5.61999762	      0.28666094	     16.60674051	      0.32547647	     11.45409608	    -21.65605055	      7.94334327	      6.12495941	     -6.53420389	     -7.81438180	     -2.17867138
      1.88000000	     -2.55151185	     -3.08350742	    114.27932077	     -0.71561350	      0.92729222	      0.45893626	      9.36119213	     -3.23248998	      0.26075977	    -58.79469642	     -5.93089483	      1.21943377	     15.84697012	      0.53452998	     10.65477955	    -21.37139589	      8.24172329	      5.83705308	     -6.87313367	     -8.01264084	     -2.43066743
      1.89000000	     -2.85862249	     -3.14537912	    113.41035165	     -0.71910663	      0.92790551	      0.45334108	     11.28618897	     -4.07989622	     -0.41988032	    -61.30645892	     -5.80830306	      1.86944713	     15.08501547	      0.77456148	      9.83265341	    -21.09853797	      8.53341499	      5.59335115	     -7.23898683	     -8.22865028	     -2.75151835
